<svg xmlns="http://www.w3.org/2000/svg" viewBox="0 0 512 512">
  <rect width="512" height="512" rx="80" fill="#1D9E75"/>
  <rect x="120" y="100" width="272" height="320" rx="20" fill="#085041"/>
  <rect x="136" y="116" width="240" height="288" rx="12" fill="#fff" opacity="0.95"/>
  <rect x="156" y="150" width="200" height="8" rx="4" fill="#1D9E75"/>
  <rect x="156" y="175" width="180" height="8" rx="4" fill="#1D9E75" opacity="0.7"/>
  <rect x="156" y="200" width="190" height="8" rx="4" fill="#1D9E75" opacity="0.7"/>
  <rect x="156" y="225" width="160" height="8" rx="4" fill="#1D9E75" opacity="0.5"/>
  <rect x="156" y="260" width="200" height="8" rx="4" fill="#1D9E75"/>
  <rect x="156" y="285" width="170" height="8" rx="4" fill="#1D9E75" opacity="0.7"/>
  <rect x="156" y="310" width="185" height="8" rx="4" fill="#1D9E75" opacity="0.7"/>
  <rect x="156" y="335" width="155" height="8" rx="4" fill="#1D9E75" opacity="0.5"/>
  <rect x="248" y="100" width="8" height="320" fill="#0F6E56"/>
  <circle cx="380" cy="380" r="80" fill="#EF9F27"/>
  <text x="380" y="395" font-size="70" text-anchor="middle" fill="#fff" font-family="Arial">✓</text>
</svg>